<?xml version="1.0" encoding="UTF-8"?><svg id="Layer_2" xmlns="http://www.w3.org/2000/svg" viewBox="0 0 625.65 319.85"><defs><style>.cls-1{fill:#3e0372;stroke-width:0px;}</style></defs><g id="Layer_1-2"><path class="cls-1" d="m400.77,74.68c.56-.66.95-.98,1.16-1.4,4.88-9.59,13.19-15.25,22.6-19.57,11.06-5.07,22.87-7.77,34.72-10.1,27.87-5.48,55.82-10.57,83.68-16.09,21.26-4.21,42.39-9.04,62.44-17.55,6.27-2.66,12.23-6.04,18.34-9.09.42-.21.86-.39,1.95-.89-5.48,37.27-24.47,63.27-59.73,76.77.1.26.2.51.31.77h37.6c.12.33.24.66.36.99-11.05,25.99-31.43,40.22-58.93,45.45.07.27.15.54.22.81h26.32c-1.15,1.94-1.84,3.22-2.64,4.42-12.35,18.58-28.07,33.76-46.56,46.12-28.71,19.2-60.54,28.94-94.84,30.83-10.29.57-20.64.13-30.96,0-1.89-.02-3.03.47-4.13,2.01-25.91,36.37-51.87,72.71-77.82,109.05-.57.8-1.18,1.58-1.96,2.62-.66-.83-1.19-1.43-1.65-2.07-25.56-35.8-51.15-71.58-76.62-107.45-2.12-2.99-4.16-4.34-8.08-4.08-21.99,1.43-43.79-.14-65.26-5.36-26.38-6.41-50.26-17.94-71.39-35.07-12.97-10.52-24.25-22.57-33.43-36.55-.81-1.23-1.52-2.53-2.6-4.34h26.13c.12-.3.25-.61.37-.91-27.56-5.19-47.87-19.49-59.32-46.29h38.41c.16-.28.33-.56.49-.84C24.46,63.47,5.41,37.43,0,.2c.91.24,1.31.26,1.61.45,15.53,9.47,32.58,15.14,50.03,19.75,28.71,7.58,58.08,11.92,87.16,17.71,17.63,3.51,35.15,7.64,52.6,11.94,8.03,1.98,15.4,5.85,22,10.98,4,3.11,7.29,6.82,9.7,11.29.39.71.85,1.38,1.58,2.55,22.2-29.44,51.24-45.7,88.05-45.74,36.86-.04,65.92,16.19,88.05,45.56Zm-129.48,58.24c.2,23.84,18.58,42.3,41.93,42.11,22.37-.18,41.42-18.99,41.14-40.95-.32-24.52-18.74-42.24-41.77-42.07-25.32.19-41.3,20.74-41.3,40.91Z"/></g></svg>